<svg xmlns="http://www.w3.org/2000/svg" width="423" height="500" viewBox="0 0 423 500" version="1.1"><path d="M 143.589 244.100 C 77.697 251.046, 21.851 298.768, 5.032 362.500 C 0.551 379.479, 0.012 387.051, 0.006 433.072 C -0.001 483.474, -0.059 483.071, 8.435 491.565 C 16.847 499.978, 17.060 500.011, 62.428 499.933 C 96.008 499.876, 100.916 499.684, 97.346 498.567 C 88.834 495.904, 81.738 489.018, 78.825 480.591 C 77.215 475.932, 77.063 469.802, 77.033 408.381 C 77.006 352.647, 77.259 339.756, 78.526 332.381 C 82.385 309.924, 92.048 290.980, 107.745 275.101 C 125.023 257.622, 148.005 246.719, 173 244.142 C 181.153 243.302, 180.888 243.266, 166.500 243.266 C 158.250 243.266, 147.940 243.641, 143.589 244.100 M 255.500 244.542 C 301.070 251.802, 336.777 286.373, 344.510 330.719 C 345.627 337.123, 346 347.514, 346 372.224 C 346 401.611, 345.776 406.287, 343.932 415.335 C 335.297 457.707, 301.413 490.763, 258.666 498.519 C 252.197 499.693, 255.257 499.828, 290.140 499.910 C 320.738 499.981, 330.438 499.685, 336.750 498.488 C 370.375 492.109, 398.393 470.519, 413.033 439.706 C 415.178 435.193, 418.175 427.450, 419.694 422.500 L 422.456 413.500 422.478 372.500 C 422.499 332.697, 422.432 331.252, 420.181 323 C 410.696 288.225, 385.303 260.578, 352.500 249.310 C 336.702 243.883, 335.432 243.765, 289.500 243.425 C 249.286 243.129, 247.083 243.201, 255.500 244.542" stroke="none" fill="#699afb" fill-rule="evenodd"/><path d="M 192.113 1.487 C 151.449 10.676, 122.023 40.131, 113.796 79.881 C 112.198 87.601, 111.897 92.067, 112.268 102.500 C 112.827 118.190, 115.268 128.529, 121.563 141.867 C 144.964 191.448, 204.446 212.864, 253.808 189.481 C 265.843 183.780, 273.621 178.164, 283.068 168.357 C 292.271 158.803, 295.725 153.829, 301.526 141.774 C 307.915 128.500, 310.121 119.180, 310.705 103 C 311.101 92.040, 310.821 87.713, 309.217 80 C 302.833 49.306, 283.481 23.796, 256.503 10.510 C 241.191 2.969, 232.042 0.791, 214 0.389 C 202.998 0.144, 196.647 0.462, 192.113 1.487 M 173 244.142 C 148.005 246.719, 125.023 257.622, 107.745 275.101 C 91.918 291.112, 82.236 310.205, 78.516 332.737 C 77.123 341.179, 76.945 351.703, 77.202 410.500 C 77.495 477.325, 77.537 478.578, 79.614 483 C 82.269 488.649, 87.934 494.294, 93.900 497.233 L 98.500 499.500 177.500 499.500 C 255.836 499.500, 256.570 499.481, 264.782 497.290 C 306.057 486.276, 335.738 455.544, 343.932 415.335 C 345.776 406.287, 346 401.611, 346 372.224 C 346 336.285, 345.218 328.296, 340.385 314.838 C 326.637 276.554, 294.871 250.517, 254.618 244.541 C 243.007 242.816, 188.443 242.550, 173 244.142" stroke="none" fill="#0454cc" fill-rule="evenodd"/></svg>